# xmcd
#
# Track frame offsets:
# 182
# 14512
# 30217
# 44235
# 56800
# 71305
# 82552
# 96322
# 111810
# 128975
# 143115
# 160270
# 174447
#
# Disc length: 2515 seconds
#
# Revision: 2
# Processed by: cddbd v1.5.1PL0 Copyright (c) Steve Scherf et al.
# Submitted via: Axialis_AX_CDPlayer 2.6
#
DISCID=a709d10d
DTITLE=Suroit - Suroit
DYEAR=1900
DGENRE=
TTITLE0=Mystificot 
TTITLE1=L o
TTITLE2=Beau Robert
TTITLE3=Les filles de LaRochelle
TTITLE4=H  Yaille Yaille (Disco fait dodo)
TTITLE5=Salut Cap Breton (Instrumental)
TTITLE6=M'en allant par Saulnierville Station
TTITLE7=Saint-Sauveur
TTITLE8=Les bons souvenirs
TTITLE9=L'Amour est d r
TTITLE10=La rose
TTITLE11=La danse du samedi soir
TTITLE12=Quand deux violons chantent (Instrumental)
EXTD=
EXTT0=
EXTT1=
EXTT2=
EXTT3=
EXTT4=
EXTT5=
EXTT6=
EXTT7=
EXTT8=
EXTT9=
EXTT10=
EXTT11=
EXTT12=
PLAYORDER=
